<svg width="700" height="200" version="1.1" viewBox="0 0 185 53" xmlns="http://www.w3.org/2000/svg">
 <g transform="translate(-8.9 -101)">
  <path d="m34 147v-32l-0.72-6 0.72-3.5h18l1.8 1.8-2.4 8.2-3.2-0.58h-7.9l0.36 6.4h9.7v9.1h-4.4l-5.3-0.58v7.8l0.4 5.8-0.4 3.4z" style="stroke-width:1.1"/>
  <path d="m52 147 1.7-9.9v-7.4l2.7-1.8 4.7-22h9.3l5.8 26 2.8 8.3v6.8h-6.4l-1.8-9.4h-10l-1.5 9.4zm11-18h6.1l-2.7-13h-0.76z" style="stroke-width:1.1"/>
  <path d="m90 147q-2 0-3.7-0.58-1.8-0.64-3.1-1.5-1.3-0.88-1.9-1.6v-10q1.7 1.6 4.4 3 2.6 1.3 5.8 1.3 1.3 0 1.9-0.53 0.65-0.58 0.65-2 0-1.5-1.4-2.5-1.4-1.1-4.5-2.6-2.4-1.2-4.1-2.7-1.7-1.5-2.6-3.7-0.86-2.3-0.86-5.8 0-3.6 1.2-6.5t3.6-4.6 6.3-1.7q1.2 0 2.4 0.18 1.3 0.12 2.1 0.35l4.1 4.9-1.4 7.1-8.5-3.8q-1.5 0-2.2 0.99-0.68 0.99-0.68 2.4 0 1.7 1.2 2.7 1.2 0.99 3.4 2 3.5 1.6 5.5 3.5 1.9 1.9 2.7 4.4 0.79 2.4 0.79 5.4 0 5.6-2.8 9.1-2.8 3.4-8.3 3.4z" style="stroke-width:1.1"/>
  <path d="m111 147v-32l-7.2 0.58v-9.9h21v9.9l-7.4-0.58v23l0.4 5.8-0.4 3.5z" style="stroke-width:1.1"/>
  <path d="m128 147v-32l-0.72-5.8 0.72-3.5h12q4.1 0 6.5 2.5 2.4 2.5 2.4 7.9 0 2.7-0.58 5-0.58 2.2-1.7 3.4 2.4 1.3 3.6 3.9 1.2 2.6 1.2 6.3 0 6.4-2.3 9.4-2.3 3-6.7 3zm6.5-25h5.7q1.2 0 1.8-0.94 0.54-0.94 0.54-2.5 0-1.9-0.79-2.6-0.79-0.7-1.9-0.7h-5.3zm0 16h7.2q1.3 0 1.9-0.53 0.65-0.53 0.83-1.3 0.22-0.82 0.22-1.7 0-1.5-0.68-2.6-0.65-1.1-1.9-1.1h-7.6z" style="stroke-width:1.1"/>
  <path d="m155 147v-32l-0.36-5.8 0.36-3.5h6.5v41z" style="stroke-width:1.1"/>
  <path d="m172 147v-32l-7.2 0.58v-9.9h21v9.9l-7.4-0.58v23l0.4 5.8-0.4 3.5z" style="stroke-width:1.1"/>
  <path d="m36 146c-1.2-0.47-2.4-0.8-3.6-0.99-2.4 0.019-4.9 1.4-6.3 3.3-0.25 0.39-0.39 0.84-0.59 1.3l3.6-1.6c0.18-0.4 0.33-0.81 0.62-1.2 0.99-1 3-2-2.1 0.94-0.16 0.093 0.32-0.19 0.5-0.25 0.27-0.093 0.82-0.15 1.1-0.19 1.2 0.16 2.4 0.44 3.5 0.93l3.3-2.2z" style="opacity:.99;stroke-linejoin:bevel;stroke-width:.39;stroke:#000"/>
  <circle cx="27" cy="149" r=".082" style="stroke-width:.26;stroke:#000"/>
  <circle cx="27" cy="149" r=".082" style="stroke-width:.26;stroke:#000"/>
  <path d="m36 110c-0.015-1 0.1-2-0.41-2.9-0.59-0.68-1.5-0.8-2.3-0.98-0.94-0.18-1.9-0.22-2.9-0.24-0.92 3e-3 -1.8-0.049-2.8 0.016-1.7 0.44-3.7 1.4-4.8 2.7-0.15 0.18-0.36 0.6-0.46 0.8-0.49 0.98-1.2 1.8-1.7 2.8-0.28 0.32-0.34 0.43-0.69 0.67-0.12 0.086-0.52 0.3-0.39 0.22 5-2.9 3.6-1.9 2.2-1.5-0.83 0.21-1.6 0.07-2.3-0.27-0.56-0.3-0.69-0.85-0.91-1.4l-3.5 1.9c0.26 0.63 0.45 1.3 1.1 1.6 0.79 0.41 1.6 0.66 2.5 0.48 2.2-0.36 4.3-1.6 5.6-3.4 0.59-0.92 1.2-1.8 1.7-2.8 0.23-0.35 0.24-0.41 0.52-0.68 0.092-0.088 0.41-0.31 0.29-0.25-5.7 3-3.6 1.9-2.3 1.4 0.9-0.18 1.8-0.03 2.7-0.072 0.94 0.015 1.9 0.035 2.8 0.19 0.72 0.13 1.6 0.23 2.2 0.7 0.49 0.82 0.29 1.8 0.3 2.7l3.5-1.8z" style="opacity:.99;stroke-linejoin:bevel;stroke-width:.39;stroke:#000"/>
  <path d="m39 122c0.042-0.99-0.22-1.8-1-2.4-1.2-0.51-2.6-0.43-3.8-0.56-2.5-0.48-5.3 0.46-6.3 3-0.34 0.56-0.34 1.3-0.65 1.8-0.11 0.2-0.26 0.38-0.39 0.57 0.33-0.062-1 0.82-0.7 0.62 5.3-3.1 3.7-1.9 2.3-1.5-0.91 0.08-1.8 0.42-2.6 0.66-0.49 0.14-0.97 0.24-1.4 0.032l-3.3 2.2c0.53 0.35 1 0.37 1.6 0.2 0.88-0.21 1.7-0.62 2.6-0.66 2-0.37 3.9-1.4 5.1-3.1 0.46-0.76 0.62-1.6 0.99-2.4 0.083-0.15 0.14-0.32 0.25-0.46 0.099-0.13 0.5-0.42 0.35-0.35-6.6 3.2-3.5 1.6-2.4 1.5 0.089-2e-3 1.3 0.12 1.4 0.13 1.2 0.13 2.5 0.13 3.7 0.43 0.76 0.47 0.87 1.3 0.81 2.1l3.5-1.8z" style="opacity:.99;stroke-linejoin:bevel;stroke-width:.39;stroke:#000"/>
  <path d="m36 129c-0.89-0.67-1.9-1.1-3-1.3-2.4-0.34-3.5 0.98-5.8 2.3-1 0.87-3 1.8 2.3-1.2l-3.1 2.5c1.6-0.91 3-1.6 4.4-2.7-1 0.59-2.1 1.2-3.1 1.8-0.098 0.055 0.17-0.15 0.27-0.2 0.51-0.26 1.2-0.17 1.7-0.2 1 0.2 2 0.55 2.8 1.2l3.4-2.1z" style="opacity:.99;stroke-linejoin:bevel;stroke-width:.39;stroke:#000"/>
  <path d="m37 136c-1.1-0.14-2.1-0.34-3.2-0.2-0.46 0.093-0.92 0.22-1.4 0.37l-3.1 2.4c0.43-0.19 0.87-0.31 1.3-0.42 1-0.27 2.1-0.054 3.1 0.1l3.2-2.3z" style="opacity:.99;stroke-linejoin:bevel;stroke-width:.39;stroke:#000"/>
 </g>
</svg>
